<?xml version="1.0" encoding="utf-8"?>
<svg viewBox="36.571 -33.574 477.229 571.954" style="enable-background:new 0 0 512.001 512.001;" xmlns="http://www.w3.org/2000/svg">
  <g transform="matrix(0.665893, -0.746055, 0.746055, 0.665893, -45.582954, 229.369095)">
    <rect x="69.199" y="109.917" style="fill:#A9ACCC;" width="368.154" height="59.265"/>
    <rect x="69.199" y="109.917" style="opacity:0.1;enable-background:new    ;" width="368.154" height="59.265"/>
  </g>
  <rect x="88.163" y="214.917" style="fill:#A9ACCC;" width="368.154" height="59.265" transform="matrix(0.970296, -0.241922, 0.241922, 0.970296, -55.039906, 63.736965)"/>
  <path style="opacity:0.1;enable-background:new    ;" d="M 132.875 210.731 L 84.719 243.514 L 84.719 301.793 C 96.867 301.793 108.156 298.053 117.502 291.668 C 118.068 291.281 118.626 290.881 119.179 290.475 C 119.451 290.275 119.721 290.072 119.989 289.867 C 120.445 289.519 120.896 289.164 121.342 288.803 C 121.651 288.553 121.956 288.299 122.259 288.044 C 122.656 287.709 123.05 287.368 123.438 287.022 C 123.681 286.805 123.924 286.59 124.163 286.369 C 124.672 285.901 125.173 285.424 125.664 284.938 C 125.885 284.719 126.101 284.496 126.319 284.274 C 126.693 283.893 127.06 283.507 127.423 283.116 C 127.616 282.909 127.811 282.703 128.001 282.493 C 128.469 281.974 128.925 281.444 129.374 280.907 C 129.57 280.673 129.764 280.438 129.957 280.201 C 130.404 279.651 130.843 279.096 131.27 278.531 C 131.419 278.334 131.561 278.133 131.707 277.935 C 132.057 277.459 132.398 276.979 132.734 276.493 C 132.887 276.271 133.041 276.05 133.191 275.826 C 133.601 275.212 134 274.591 134.387 273.962 C 134.521 273.745 134.65 273.526 134.781 273.307 C 135.113 272.751 135.437 272.19 135.751 271.622 C 135.836 271.468 135.924 271.318 136.008 271.163 C 136.375 270.484 136.726 269.794 137.067 269.099 C 137.174 268.881 137.281 268.663 137.385 268.443 C 137.72 267.738 138.044 267.028 138.352 266.308 C 138.418 266.152 138.48 265.993 138.546 265.836 C 138.813 265.194 139.068 264.547 139.313 263.894 C 139.382 263.709 139.454 263.526 139.521 263.339 C 139.793 262.588 140.05 261.828 140.293 261.064 C 140.355 260.87 140.413 260.675 140.473 260.48 C 140.7 259.735 140.916 258.986 141.114 258.229 C 141.133 258.158 141.153 258.088 141.172 258.016 C 141.38 257.204 141.566 256.383 141.74 255.558 C 141.78 255.365 141.822 255.173 141.86 254.98 C 142.024 254.159 142.175 253.333 142.304 252.5 C 142.326 252.364 142.342 252.226 142.363 252.089 C 142.476 251.32 142.576 250.548 142.659 249.769 C 142.676 249.618 142.694 249.469 142.709 249.318 C 142.794 248.468 142.858 247.611 142.905 246.75 C 142.915 246.564 142.923 246.378 142.932 246.191 C 142.972 245.303 143 244.411 143 243.513 C 142.999 231.366 139.258 220.078 132.875 210.731 Z" transform="matrix(0.970296, -0.241922, 0.241922, 0.970296, -58.613277, 35.157185)"/>
  <circle style="fill:#A9ACCC;" cx="88.163" cy="214.917" r="32.486" transform="matrix(0.970296, -0.241922, 0.241922, 0.970296, -55.039906, 63.736965)"/>
  <g transform="matrix(0.970296, -0.241922, 0.241922, 0.970296, -55.039906, 63.736965)">
    <circle style="fill:#464754;" cx="88.163" cy="214.917" r="13.224"/>
    <path style="fill:#464754;" d="M88.166,256.639v219.608c0,15.472,12.543,28.016,28.016,28.016h312.119 c15.472,0,28.016-12.543,28.016-28.016V256.639H88.166z"/>
  </g>
  <circle cx="88.163" cy="214.917" r="13.224" transform="matrix(0.970296, -0.241922, 0.241922, 0.970296, -55.039906, 63.736965)"/>
  <path d="M 147.776 377.47 C 143.501 377.47 140.038 380.935 140.038 385.208 C 140.038 389.482 143.502 392.946 147.776 392.946 L 444.05 392.946 C 448.325 392.946 451.788 389.481 451.788 385.208 C 451.788 380.934 448.324 377.47 444.05 377.47 L 381.033 377.47 L 381.033 314.532 L 444.05 314.532 C 448.325 314.532 451.788 311.067 451.788 306.794 C 451.788 302.52 448.324 299.056 444.05 299.056 L 147.776 299.056 C 143.501 299.056 140.038 302.521 140.038 306.794 C 140.038 311.068 143.502 314.532 147.776 314.532 L 210.792 314.532 L 210.792 377.47 L 147.776 377.47 Z M 226.268 314.533 L 365.556 314.533 L 365.556 377.471 L 226.268 377.471 L 226.268 314.533 Z" transform="matrix(0.970296, -0.241922, 0.241922, 0.970296, -74.915337, 81.86554)"/>
  <path d="M 173.735 457.856 L 470.009 457.856 C 474.284 457.856 477.747 454.391 477.747 450.118 C 477.747 445.844 474.283 442.38 470.009 442.38 L 173.735 442.38 C 169.46 442.38 165.997 445.845 165.997 450.118 C 165.996 454.392 169.461 457.856 173.735 457.856 Z" transform="matrix(0.970296, -0.241922, 0.241922, 0.970296, -99.332428, 91.238312)"/>
  <path d="M 69.795 249.808 L 69.795 252.058 L 69.795 278.765 C 69.795 283.039 73.259 286.503 77.533 286.503 C 81.808 286.503 85.271 283.038 85.271 278.765 L 85.271 259.796 L 214.44 259.796 C 214.441 259.796 214.442 259.796 214.443 259.796 C 214.444 259.796 214.445 259.796 214.445 259.796 L 332.95 259.796 C 332.95 259.796 332.952 259.796 332.953 259.796 C 332.954 259.796 332.955 259.796 332.956 259.796 L 392.206 259.796 C 392.207 259.796 392.208 259.796 392.209 259.796 C 392.21 259.796 392.211 259.796 392.211 259.796 L 437.947 259.796 L 437.947 417.661 C 437.947 421.935 441.411 425.399 445.685 425.399 C 449.96 425.399 453.423 421.934 453.423 417.661 L 453.423 252.058 L 453.423 210.339 C 453.423 206.064 449.959 202.601 445.685 202.601 L 207.951 202.601 L 419.558 58.541 C 421.255 57.385 422.422 55.605 422.805 53.589 C 423.188 51.572 422.754 49.487 421.599 47.79 L 388.25 -1.196 C 385.846 -4.729 381.033 -5.644 377.499 -3.238 L 105.787 181.743 C 98.517 174.56 88.536 170.115 77.533 170.115 C 55.354 170.115 37.31 188.16 37.31 210.338 C 37.31 229.872 51.307 246.19 69.795 249.808 Z M 228.772 218.078 L 255.015 244.321 L 217.649 244.321 L 191.406 218.078 L 228.772 218.078 Z M 288.028 218.078 L 314.271 244.321 L 276.904 244.321 L 250.661 218.078 L 288.028 218.078 Z M 347.282 218.078 L 373.525 244.321 L 336.159 244.321 L 309.916 218.078 L 347.282 218.078 Z M 406.537 218.078 L 432.779 244.321 L 395.413 244.321 L 369.17 218.078 L 406.537 218.078 Z M 169.517 218.078 L 195.76 244.321 L 99.037 244.321 C 99.192 244.222 99.34 244.115 99.494 244.015 C 106.212 239.623 111.55 233.195 114.663 225.799 C 115.677 223.39 116.451 220.844 116.966 218.281 C 116.979 218.213 116.998 218.147 117.011 218.079 L 169.517 218.079 L 169.517 218.078 Z M 437.946 227.598 L 428.425 218.077 L 437.946 218.077 L 437.946 227.598 Z M 206.906 131.624 L 267.736 143.177 L 236.847 164.206 L 176.017 152.653 L 206.906 131.624 Z M 255.888 98.277 L 316.719 109.83 L 285.83 130.858 L 224.999 119.305 L 255.888 98.277 Z M 304.869 64.932 L 365.7 76.485 L 334.811 97.514 L 273.98 85.961 L 304.869 64.932 Z M 383.792 64.167 L 322.961 52.614 L 353.85 31.585 L 397.489 39.873 L 404.452 50.102 L 383.792 64.167 Z M 379.813 13.91 L 385.171 21.78 L 371.942 19.268 L 379.813 13.91 Z M 157.925 164.97 L 218.755 176.523 L 180.45 202.601 L 117.014 202.601 C 116.997 202.515 116.975 202.433 116.957 202.348 C 116.793 201.533 114.547 194.501 114.524 194.517 L 157.925 164.97 Z M 77.533 185.591 C 90.852 185.591 102.232 196.935 102.278 210.252 C 102.278 210.281 102.28 210.31 102.28 210.338 C 102.282 223.773 90.947 235.085 77.529 235.085 C 63.885 235.084 52.785 223.982 52.785 210.338 C 52.786 196.693 63.887 185.591 77.533 185.591 Z" transform="matrix(0.970296, -0.241922, 0.241922, 0.970296, -43.614128, 65.609581)"/>
  <path d="M 124.053 292.279 C 119.778 292.279 116.315 295.744 116.315 300.017 L 116.315 461.965 C 116.315 481.68 132.355 497.719 152.07 497.719 L 464.189 497.719 C 483.903 497.719 499.942 481.68 499.942 461.965 L 499.942 438.914 C 499.942 434.64 496.478 431.176 492.204 431.176 C 487.929 431.176 484.466 434.641 484.466 438.914 L 484.466 461.965 C 484.466 473.146 475.37 482.242 464.19 482.242 L 152.07 482.242 C 140.888 482.242 131.792 473.146 131.792 461.965 L 131.792 300.017 C 131.791 295.743 128.328 292.279 124.053 292.279 Z" transform="matrix(0.970296, -0.241922, 0.241922, 0.970296, -86.406174, 86.276192)"/>
</svg>