<?xml version="1.0" encoding="utf-8"?>
<svg viewBox="107.178 0 335.738 512" style="enable-background:new 0 0 512 512;" xmlns="http://www.w3.org/2000/svg">
  <path style="fill:#EEBF00;" d="M 246.048 244.04 L 270.598 226.08 L 279.291 149.308 C 279.291 130.58 264.109 115.398 245.381 115.398 L 235.723 115.398 C 226.636 115.398 219.271 108.032 219.271 98.946 L 219.271 83.663 L 223.533 80.623 C 228.107 77.359 230.823 72.087 230.823 66.467 L 230.823 30.948 C 230.823 21.065 222.811 13.053 212.929 13.053 L 193.243 13.053 C 183.36 13.053 175.348 21.065 175.348 30.948 L 175.348 66.467 C 175.348 72.086 178.063 77.359 182.638 80.623 L 186.899 83.663 L 186.899 98.945 C 186.899 108.031 179.533 115.397 170.447 115.397 L 160.789 115.397 C 142.061 115.397 126.879 130.579 126.879 149.307 L 128.762 165.938 L 135.572 226.079 L 156.888 244.039 L 246.048 244.039 L 246.048 244.04 Z" transform="matrix(0.891007, -0.45399, 0.45399, 0.891007, -36.223938, 106.209236)"/>
  <path style="opacity:0.14;fill:#664400;enable-background:new    ;" d="M 241.981 98.409 L 232.323 98.409 C 223.236 98.409 215.871 91.043 215.871 81.957 L 215.871 66.674 L 220.133 63.634 C 224.707 60.37 227.423 55.098 227.423 49.478 L 227.423 13.959 C 227.423 4.076 219.411 -3.936 209.528 -3.936 L 196.968 -3.936 C 206.851 -3.936 214.863 4.076 214.863 13.959 L 214.863 49.478 C 214.863 55.097 212.148 60.37 207.573 63.634 L 203.311 66.674 L 203.311 81.956 C 203.311 91.042 210.677 98.408 219.763 98.408 L 229.421 98.408 C 248.149 98.408 263.331 113.59 263.331 132.318 L 254.638 209.09 L 230.088 227.05 L 242.648 227.05 L 267.198 209.09 L 275.891 132.318 C 275.891 113.591 260.709 98.409 241.981 98.409 Z" transform="matrix(0.891007, -0.45399, 0.45399, 0.891007, -24.876553, 119.495567)"/>
  <polygon style="fill:#DDB200;" points="310.567 144.867 310.567 199.848 311.966 288.723 295.976 377.597 240.828 377.597 224.838 288.723 226.236 199.848 226.236 157.621" transform="matrix(0.891007, -0.45399, 0.45399, 0.891007, -89.342705, 150.32431)"/>
  <polygon style="opacity:0.14;fill:#664400;enable-background:new    ;" points="306.846 187.888 306.846 132.907 290.1 135.439 290.1 187.888 291.498 276.763 275.508 365.637 292.254 365.637 308.244 276.763" transform="matrix(0.891007, -0.45399, 0.45399, 0.891007, -81.354485, 159.677719)"/>
  <g style="opacity:0.25;" transform="matrix(0.891007, -0.45399, 0.45399, 0.891007, -80.889771, 135.105545)">
    <path style="fill:#664400;" d="M253.962,394.904c-4.19,0-7.585-3.396-7.585-7.585V251.706c0-4.189,3.395-7.585,7.585-7.585 c4.19,0,7.585,3.396,7.585,7.585v135.613C261.547,391.509,258.152,394.904,253.962,394.904z"/>
  </g>
  <rect x="194.338" y="410.458" style="fill:#3E3B43;" width="119.236" height="23.134" transform="matrix(0.891007, -0.45399, 0.45399, 0.891007, -80.889771, 135.105545)"/>
  <polygon style="fill:#DDB200;" points="298.695 402.281 417.935 402.281 417.935 473.107 298.695 473.107 298.695 457.92" transform="matrix(0.891007, -0.45399, 0.45399, 0.891007, -159.654785, 210.377075)"/>
  <polygon style="opacity:0.14;fill:#664400;enable-background:new    ;" points="395.551 380.406 395.551 384.701 395.551 455.527 293.444 455.527 293.444 459.181 293.444 474.367 412.684 474.367 412.684 403.541 412.684 380.406" transform="matrix(0.891007, -0.45399, 0.45399, 0.891007, -155.547607, 206.86972)"/>
  <rect x="211.793" y="387.319" style="fill:#494949;" width="84.335" height="23.134" transform="matrix(0.891007, -0.45399, 0.45399, 0.891007, -80.889771, 135.105545)"/>
  <polygon style="fill:#CCA400;" points="259.478 144.795 257.739 170.303 227.04 170.303 215.574 165.878 202.628 170.303 173.408 170.303 171.669 144.795" transform="matrix(0.891007, -0.45399, 0.45399, 0.891007, -48.029617, 115.03997)"/>
  <path d="M 305.726 93.326 L 296.069 93.326 C 291.179 93.326 287.201 89.348 287.201 84.459 L 287.201 73.083 L 288.282 72.311 C 294.837 67.635 298.752 60.034 298.752 51.979 L 298.752 16.461 C 298.753 2.411 287.323 -9.019 273.274 -9.019 L 253.588 -9.019 C 239.538 -9.019 228.109 2.411 228.109 16.461 L 228.109 51.98 C 228.109 60.034 232.023 67.635 238.579 72.312 L 239.66 73.084 L 239.66 84.459 C 239.66 89.349 235.681 93.326 230.793 93.326 L 221.135 93.326 C 198.255 93.326 179.64 111.941 179.64 134.821 C 179.64 135.106 179.656 135.391 179.689 135.675 L 181.572 152.306 C 182.043 156.47 185.81 159.465 189.962 158.989 C 194.125 158.518 197.117 154.762 196.645 150.599 L 194.812 134.419 C 195.027 120.087 206.753 108.496 221.134 108.496 L 230.792 108.496 C 244.045 108.496 254.829 97.713 254.829 84.459 L 254.829 69.177 C 254.829 66.726 253.645 64.426 251.648 63.002 L 247.386 59.962 C 244.812 58.126 243.277 55.143 243.277 51.981 L 243.277 16.461 C 243.277 10.775 247.902 6.15 253.586 6.15 L 273.272 6.15 C 278.957 6.15 283.582 10.775 283.582 16.461 L 283.582 51.98 C 283.582 55.142 282.046 58.126 279.473 59.961 L 275.211 63.001 C 273.215 64.425 272.03 66.725 272.03 69.176 L 272.03 84.457 C 272.03 97.711 282.813 108.494 296.068 108.494 L 305.725 108.494 C 320.107 108.494 331.831 120.086 332.047 134.417 L 323.778 207.433 L 311.391 216.495 L 311.139 200.491 L 311.139 158.578 L 312.86 133.331 C 313.145 129.151 309.988 125.533 305.808 125.247 C 301.641 124.952 298.01 128.118 297.725 132.298 L 296.468 150.737 L 274.27 150.737 L 264.123 146.821 C 262.459 146.18 260.626 146.144 258.939 146.72 L 247.186 150.737 L 226.311 150.737 L 225.054 132.298 C 224.77 128.118 221.111 124.949 216.971 125.247 C 212.791 125.532 209.634 129.151 209.919 133.331 L 211.64 158.578 L 211.64 200.49 L 211.415 214.732 L 200.804 205.792 C 197.601 203.094 192.816 203.501 190.116 206.705 C 187.417 209.909 187.825 214.694 191.028 217.393 L 211.107 234.311 L 210.241 289.308 C 210.233 289.798 210.272 290.288 210.359 290.77 L 224.742 370.717 L 219.222 370.717 C 215.032 370.717 211.637 374.113 211.637 378.302 L 211.637 393.851 L 201.767 393.851 C 197.577 393.851 194.182 397.247 194.182 401.436 L 194.182 424.57 C 194.182 428.759 197.577 432.155 201.767 432.155 L 313.421 432.155 L 313.421 487.813 L 209.357 487.813 L 209.357 480.211 C 209.357 476.022 205.962 472.626 201.772 472.626 C 197.582 472.626 194.187 476.022 194.187 480.211 L 194.187 495.398 C 194.187 499.587 197.582 502.983 201.772 502.983 L 321.011 502.983 C 325.201 502.983 328.596 499.587 328.596 495.398 L 328.596 424.571 L 328.596 401.437 C 328.596 397.248 325.201 393.852 321.011 393.852 L 311.141 393.852 L 311.141 378.302 C 311.141 374.113 307.746 370.717 303.556 370.717 L 298.036 370.717 L 312.419 290.77 C 312.506 290.288 312.545 289.798 312.537 289.308 L 311.683 235.078 L 335.419 217.714 C 337.129 216.462 338.239 214.553 338.476 212.446 L 347.17 135.674 C 347.202 135.391 347.219 135.106 347.219 134.82 C 347.222 111.94 328.607 93.326 305.726 93.326 Z M 313.427 416.986 L 209.357 416.986 L 209.357 409.022 L 219.227 409.022 L 303.558 409.022 L 313.428 409.022 L 313.427 416.986 Z M 226.811 393.85 L 226.811 385.886 L 233.775 385.886 C 233.786 385.886 233.797 385.887 233.808 385.887 C 233.819 385.887 233.83 385.886 233.841 385.886 L 288.94 385.886 C 288.951 385.886 288.962 385.887 288.973 385.887 C 288.984 385.887 288.995 385.886 289.006 385.886 L 295.97 385.886 L 295.97 393.85 L 226.811 393.85 Z M 268.977 370.716 L 268.977 242.688 C 268.977 238.499 265.582 235.103 261.392 235.103 C 257.202 235.103 253.807 238.499 253.807 242.688 L 253.807 370.716 L 240.16 370.716 L 225.424 288.808 L 226.811 200.671 C 226.812 200.631 226.812 200.591 226.812 200.552 L 226.812 165.91 L 248.447 165.91 C 249.281 165.91 250.111 165.772 250.9 165.502 L 261.236 161.969 L 270.128 165.4 C 270.999 165.737 271.924 165.909 272.859 165.909 L 295.973 165.909 L 295.973 200.551 C 295.973 200.591 295.973 200.631 295.974 200.67 L 297.361 288.807 L 282.625 370.715 L 268.977 370.716 Z" transform="matrix(0.891007, -0.45399, 0.45399, 0.891007, -83.415321, 146.513702)"/>
</svg>