<?xml version="1.0" encoding="utf-8"?>
<svg viewBox="0 -0.232 36 37.217" xmlns="http://www.w3.org/2000/svg">
  <path fill="#E1E8ED" d="M 32.512 10.851 L 5.879 10.851 C 3.57 10.851 2.127 13.351 3.281 15.351 C 3.817 16.279 4.808 16.851 5.879 16.851 C 6.061 16.851 6.236 16.828 6.409 16.798 L 6.393 16.851 L 7.03 30.855 C 7.129 33.053 9.011 34.851 11.211 34.851 L 27.211 34.851 C 29.411 34.851 31.293 33.053 31.393 30.855 L 32.029 16.851 L 32.014 16.801 C 32.177 16.828 32.341 16.851 32.512 16.851 C 34.822 16.851 36.265 14.351 35.11 12.351 C 34.574 11.423 33.584 10.851 32.512 10.851 L 32.512 10.851 Z" transform="matrix(0.970296, -0.241922, 0.241922, 0.970296, -4.957961, 5.322651)"/>
  <path d="M 30.605 16.758 L 30.605 33.747 C 31.468 33.013 32.049 31.951 32.097 30.761 L 32.777 16.758 L 30.605 16.758 Z M 24.605 16.758 L 27.605 16.758 L 27.605 34.758 L 24.605 34.758 L 24.605 16.758 Z M 18.605 34.758 L 18.605 16.758 L 21.605 16.758 L 21.605 34.758 L 18.605 34.758 Z M 12.605 16.758 L 15.605 16.758 L 15.605 34.758 L 12.605 34.758 L 12.605 16.758 Z M 7.097 16.758 L 7.777 30.761 C 7.831 32.103 8.553 33.289 9.605 34.015 L 9.605 16.758 L 7.097 16.758 Z" fill="#DA2F47" transform="matrix(0.970296, -0.241922, 0.241922, 0.970296, -5.63921, 5.58832)"/>
  <path opacity=".6" fill="#99AAB5" d="M 5.161 16.996 L 5.258 18.996 L 30.743 18.996 L 30.841 16.996 L 5.161 16.996 Z" transform="matrix(0.970296, -0.241922, 0.241922, 0.970296, -3.81892, 4.889394)"/>
  <path fill="#FFD983" d="M 28.389 11.382 C 28.432 11.198 28.46 11.009 28.46 10.812 C 28.46 10.138 28.19 9.528 27.756 9.079 C 28.178 8.813 28.46 8.347 28.46 7.812 C 28.458 6.751 27.386 6.027 26.402 6.422 C 26.263 5.909 25.863 5.509 25.35 5.37 C 25.744 4.386 25.021 3.314 23.96 3.312 C 23.769 3.312 23.588 3.351 23.42 3.416 C 23.13 1.517 20.893 0.645 19.394 1.846 C 18.645 2.445 18.306 3.421 18.523 4.356 C 17.883 4.469 17.333 4.825 16.96 5.325 C 16.492 4.689 15.749 4.314 14.96 4.312 C 13.579 4.312 12.46 5.431 12.46 6.812 L 12.461 6.824 C 12.153 6.589 11.795 6.429 11.414 6.358 C 11.197 5.173 10.164 4.313 8.96 4.312 C 7.752 4.313 6.718 5.178 6.505 6.367 C 6.325 6.334 6.143 6.316 5.96 6.312 C 4.027 6.312 2.46 7.879 2.46 9.812 C 2.46 10.357 2.595 10.866 2.817 11.326 C 1.669 11.404 1.035 12.695 1.676 13.651 C 1.962 14.077 2.447 14.327 2.96 14.312 L 27.96 14.312 C 29.111 14.32 29.838 13.079 29.269 12.078 C 29.077 11.741 28.762 11.491 28.389 11.382 Z" transform="matrix(0.970296, -0.241922, 0.241922, 0.970296, -1.429224, 3.967983)"/>
  <g fill="#FFAC33" transform="matrix(0.970296, -0.241922, 0.241922, 0.970296, -3.818682, 4.885314)">
    <circle cx="28" cy="8" r="1"/>
    <circle cx="24.5" cy="5.5" r="1.5"/>
    <circle cx="12" cy="7" r="1"/>
    <path d="M31 12.5a1.497 1.497 0 0 0-2.914-.483C28.057 12.015 28.031 12 28 12a1 1 0 0 0-1 1h3.908c.056-.157.092-.324.092-.5zM9.5 12c.198 0 .385.04.558.11A1.496 1.496 0 0 1 13 12.5c0 .176-.036.343-.092.5h4.184a1.483 1.483 0 0 1-.092-.5a1.5 1.5 0 0 1 1.5-1.5c.237 0 .459.06.658.158A1.485 1.485 0 0 1 19 10.5a1.5 1.5 0 1 1 2.89.558c.638.172 1.11.749 1.11 1.442c0 .176-.036.343-.092.5h2.968l-.566-.5c.42-.367.69-.899.69-1.5a2 2 0 0 0-2-2a1.98 1.98 0 0 0-1.03.294c.015-.097.03-.193.03-.294a1.997 1.997 0 0 0-3.816-.828A1.488 1.488 0 0 0 18.5 8a1.5 1.5 0 0 0-1.39 2.058c-.638.173-1.11.75-1.11 1.442c0 .198.04.385.11.558a1.49 1.49 0 0 0-.61.332a1.487 1.487 0 0 0-1-.39c-.237 0-.459.06-.659.159c.099-.2.159-.422.159-.659a1.5 1.5 0 0 0-2.058-1.39a1.496 1.496 0 1 0-2.832.948a1.49 1.49 0 0 0-.61.332a1.487 1.487 0 0 0-1-.39A1.5 1.5 0 0 0 6 12.5c0 .176.036.343.092.5h2c.207-.581.756-1 1.408-1z"/>
  </g>
  <path fill="#FFF" d="M 3.034 13.115 L 3.034 14.115 C 3.034 14.667 3.481 15.115 4.034 15.115 L 30.034 15.115 C 30.586 15.115 31.034 14.667 31.034 14.115 L 31.034 13.115 L 3.034 13.115 Z" transform="matrix(0.970296, -0.241922, 0.241922, 0.970296, -2.908745, 4.540173)"/>
</svg>