<svg viewBox="0 0 50 50" xml:space="preserve" xmlns="http://www.w3.org/2000/svg"><path fill="none" stroke="#ffffff" stroke-linecap="round" stroke-miterlimit="10" stroke-width="2" d="M1 3h48v44H1z" class="stroke-000000"></path><path fill="none" d="M0 0h50v50H0z"></path><path fill="none" stroke="#ffffff" stroke-miterlimit="10" stroke-width="2" d="M9 25h33M43 8h5M43 13h5M43 18h5M43 23h5M43 28h5M43 33h5M43 38h5M43 43h5" class="stroke-000000"></path><path d="M47 3h2v44h-2zM40 3h3v44h-3z" fill="#ffffff" class="fill-000000"></path><path fill="none" stroke="#ffffff" stroke-miterlimit="10" stroke-width="2" d="M7 8H2M7 13H2M7 18H2M7 23H2M7 28H2M7 33H2M7 38H2M7 43H2" class="stroke-000000"></path><path d="M1 3h2v44H1zM7 3h3v44H7z" fill="#ffffff" class="fill-000000"></path></svg>